<?xml version="1.0" standalone="no"?><svg xmlns="http://www.w3.org/2000/svg" viewBox="0 0 1440 320"><path fill="#FDEBEC" fill-opacity="1" d="M0,128L26.7,112C53.3,96,107,64,160,80C213.3,96,267,160,320,176C373.3,192,427,160,480,149.3C533.3,139,587,149,640,170.7C693.3,192,747,224,800,218.7C853.3,213,907,171,960,138.7C1013.3,107,1067,85,1120,90.7C1173.3,96,1227,128,1280,138.7C1333.3,149,1387,139,1413,133.3L1440,128L1440,320L1413.3,320C1386.7,320,1333,320,1280,320C1226.7,320,1173,320,1120,320C1066.7,320,1013,320,960,320C906.7,320,853,320,800,320C746.7,320,693,320,640,320C586.7,320,533,320,480,320C426.7,320,373,320,320,320C266.7,320,213,320,160,320C106.7,320,53,320,27,320L0,320Z"></path></svg>